M48
;Layer_Color=9474304
;FILE_FORMAT=4:4
METRIC,TZ
;TYPE=PLATED
T1F00S00C0.2000
T2F00S00C0.3000
T3F00S00C0.4500
T4F00S00C0.5000
T5F00S00C0.8000
T6F00S00C0.9000
T7F00S00C1.0000
T8F00S00C1.5000
;TYPE=NON_PLATED
T9F00S00C1.7500
T10F00S00C3.0000
T11F00S00C6.0000
%
T01
X2438706Y505526
Y514525
Y522525
Y531525
X2448706
Y522525
Y514525
Y505526
X1146206
Y514525
Y522525
Y531525
X1136206
Y522525
Y514525
Y505526
X163794Y750975
Y759975
Y767974
Y776974
X153794
Y767974
Y759975
Y750975
X1456294
Y759975
Y767974
Y776974
X1466294
Y767974
Y759975
Y750975
T02
X121001Y100000
X134001
X185001Y104000
X191251Y87500
X192001Y54000
X216001Y75000
X234001Y91000
X250001Y99000
X242001Y115000
X243354Y125192
X236000Y131000
X229001Y135000
X261001Y117000
X272000Y119000
X279250Y124000
X286001Y129000
X316001Y121000
X301001Y76000
X271001Y50000
X225001Y42000
X360001Y66250
X435001Y87000
X476001Y62000
X510001Y114000
X497001Y127000
X601001Y109000
X687001Y134921
X855804Y98197
X893001Y36000
X948001Y35000
X961001Y120000
X1050761Y119300
X1063461Y93900
X1088861
X1114261
X1139661
X1165061
X1190461
X1203161Y68500
X1177761
X1152361
X1126961
X1101561
X1076161
X1050761
X1101561Y119300
X1126961
X1140001Y126000
X1152361Y119300
X1177761
X1423501Y100000
X1436501
X1487501Y104000
X1493751Y87500
X1494501Y54000
X1518501Y75000
X1536501Y91000
X1552501Y99000
X1544501Y115000
X1545854Y125192
X1538500Y131000
X1531501Y135000
X1563501Y117000
X1574500Y119000
X1581750Y124000
X1588501Y129000
X1618501Y121000
X1603501Y76000
X1573501Y50000
X1527501Y42000
X1662501Y66250
X1737501Y87000
X1778501Y62000
X1812501Y114000
X1799501Y127000
X1903501Y109000
X1989501Y134921
X2158304Y98197
X2195501Y36000
X2250501Y35000
X2263501Y120000
X2353261Y119300
X2365961Y93900
X2391361
X2416761
X2442161
X2467561
X2492961
X2505661Y68500
X2480261
X2454861
X2429461
X2404061
X2378661
X2353261
X2404061Y119300
X2429461
X2442501Y126000
X2454861Y119300
X2480261
X2594561Y144700
X2581861Y170100
X2594561Y195500
X2569161
X2581861Y220900
X2585462Y256700
X2595462Y276700
X2575462
X2585462Y296700
X2565462
X2555462Y316700
X2535462
Y356700
X2555462
X2565462Y376700
X2585462
X2595462Y396700
X2585462Y416700
X2565462
X2545462
X2555462Y436700
X2535462
X2595462
Y356700
Y316700
X2555462Y396700
X2495462
X2475462
X2455462
X2435462
X2445462Y416700
X2465462
X2435462Y436700
X2415462
X2395462
X2375462
X2355462
X2335462
X2317701Y439340
X2325462Y416700
X2345462
X2365462
X2385462
X2405462
X2395462Y396700
X2375462
X2355462
X2335462
X2345462Y376700
X2325462
X2335462Y356700
X2345462Y336700
X2325462
X2335462Y316700
X2345462Y296700
X2365462
X2385462
X2425462
X2435462Y316700
X2445462Y336700
X2465462
X2485462
X2495462Y316700
X2515462
X2495462Y276700
X2475462
X2485462Y256700
X2465462Y296700
X2435462Y356700
X2485462Y376700
X2487501Y525000
X2486501Y538000
X2216101Y497686
Y484986
Y472286
Y459586
Y446886
Y434186
Y408860
X2193241Y397430
X2180541Y332660
X2171651Y303450
X2153871Y303376
X2129501Y213000
X2129251Y198750
X2216501Y189000
X2275501Y246000
X2325462Y256700
X2345462
X2355462Y276700
X2335462
X2325462Y296700
X2277501Y317000
X2327861Y220900
X2378661
X2365961Y195500
X2416761
X2442161
X2467561
X2480261Y170100
X2492961Y144700
X2467561
X2442161
X2416761
X2429461Y170100
X2404061
X2429461Y220900
X2158951Y484986
X2157828Y496000
X2044501Y501000
X2007821Y463071
Y424026
X2113231Y420290
X2092911Y360600
X1904951Y455850
X1893521Y448156
X1815941Y440425
X1776681Y448629
X1759501Y196500
X1631501Y176000
X1551743Y185351
X1513569Y180760
X1496480Y174386
X1488501Y182000
X1507782Y153000
X1520501Y152000
X1529251Y143750
X1381501Y160000
X1520351Y434186
X1533961Y477215
X1611221Y484626
X1648411Y441407
X1687671Y434076
X1292962Y436700
X1282962Y416700
X1262962
X1242962
X1252962Y436700
X1232962
X1252962Y396700
X1262962Y376700
X1282962
X1292962Y396700
Y356700
Y316700
X1282962Y296700
X1262962
X1272962Y276700
X1292962
X1282962Y256700
X1279361Y220900
X1292061Y195500
X1266661
X1279361Y170100
X1292061Y144700
X1317501Y182000
X1177761Y170100
X1190461Y144700
X1165061
X1139661
X1114261
X1126961Y170100
X1101561
X1114261Y195500
X1139661
X1165061
X1126961Y220900
X1076161
X1063461Y195500
X1025361Y220900
X1022962Y256700
X1042962
X1052962Y276700
X1032962
X1042962Y296700
X1062962
X1082962
X1122962
X1132962Y316700
X1142962Y336700
X1162962
X1182962
X1192962Y316700
X1212962
X1232962
X1252962
Y356700
X1232962
X1182962Y376700
X1192962Y396700
X1172962
X1152962
X1132962
X1142962Y416700
X1162962
X1132962Y436700
X1112962
X1092962
X1072962
X1052962
X1032962
X1015201Y439340
X1022962Y416700
X1042962
X1062962
X1082962
X1102962
X1092962Y396700
X1072962
X1052962
X1032962
X1042962Y376700
X1022962
X1032962Y356700
X1042962Y336700
X1022962
X1032962Y316700
X1022962Y296700
X975001Y317000
X973001Y246000
X1182962Y256700
X1192962Y276700
X1172962
X1162962Y296700
X1132962Y356700
X1185001Y525000
X1184001Y538000
X913601Y497686
Y484986
Y472286
Y459586
Y446886
Y434186
Y408860
X890741Y397430
X878041Y332660
X869151Y303450
X851371Y303376
X827001Y213000
X826751Y198750
X914001Y189000
X790411Y360600
X810731Y420290
X705321Y424026
Y463071
X742001Y501000
X855328Y496000
X856451Y484986
X602451Y455850
X591021Y448156
X513441Y440425
X474181Y448629
X385171Y434076
X345911Y441407
X308721Y484626
X231461Y477215
X217851Y434186
X211069Y180760
X193980Y174386
X186001Y182000
X205282Y153000
X218001Y152000
X226751Y143750
X249242Y185351
X329001Y176000
X457001Y196500
X79001Y160000
X15001Y182000
X115999Y744500
X114999Y757500
X137038Y865800
X127038Y885800
X107038
X117038Y905800
X67038Y925800
X47038
X37038Y905800
X17038
X7038Y885800
X17038Y865800
X37038
X57038
X47038Y845800
X67038
X7038
Y925800
X47038Y885800
X147038
X167038
X157038Y865800
X167038Y845800
X187038
X207038
X227038
X247038
X267038
X284799Y843160
X277038Y865800
X257038
X237038
X217038
X197038
X207038Y885800
X227038
X247038
X267038
X257038Y905800
X277038
X267038Y925800
X167038
X386399Y873640
Y848314
Y835614
Y822914
Y810214
Y797514
Y784814
X444672Y786500
X443549Y797514
X489269Y862210
X509589Y921900
X409259Y885070
X594679Y858474
Y819429
X557999Y781500
X697549Y826650
X708979Y834344
X786559Y842075
X825819Y833871
X914829Y848425
X954089Y841093
X991279Y797875
X1068539Y805285
X1082149Y848314
X1309538Y845800
X1319538Y865800
X1309538Y885800
X1319538Y905800
X1309538Y925800
X1349538
X1369538
X1339538Y905800
X1349538Y885800
X1339538Y865800
X1359538
X1349538Y845800
X1369538
X1409538Y885800
X1429538
X1449538
X1469538
X1459538Y865800
X1439538
X1469538Y845800
X1489538
X1509538
X1529538
X1549538
X1569538
X1587299Y843160
X1579538Y865800
X1559538
X1539538
X1519538
X1499538
X1509538Y885800
X1529538
X1549538
X1569538
X1559538Y905800
X1579538
X1569538Y925800
X1469538
X1419538Y905800
X1417499Y757500
X1418499Y744500
X1688899Y784814
Y797514
Y810214
Y822914
Y835614
Y848314
Y873640
X1711759Y885070
X1791769Y862210
X1812089Y921900
X1897179Y858474
Y819429
X1860499Y781500
X1747172Y786500
X1746049Y797514
X2000049Y826650
X2011479Y834344
X2089059Y842075
X2128319Y833871
X2217329Y848425
X2256589Y841093
X2293779Y797875
X2371039Y805285
X2384649Y848314
X2587499Y1100500
X2523499Y1122500
X2481499Y1182500
X2468499
X2417499Y1178500
X2411249Y1195000
X2410499Y1228500
X2386499Y1207500
X2368499Y1191500
X2352499Y1183500
X2360499Y1167500
X2359146Y1157308
X2366500Y1151500
X2373499Y1147500
X2375749Y1138750
X2384499Y1130500
X2397218Y1129500
X2408520Y1108114
X2416499Y1100500
X2391431Y1101740
X2353257Y1097149
X2341499Y1165500
X2330500Y1163500
X2323250Y1158500
X2316499Y1153500
X2286499Y1161500
X2301499Y1206500
X2331499Y1232500
X2377499Y1240500
X2242499Y1216250
X2167499Y1195500
X2145499Y1086000
X2273499Y1106500
X2105499Y1155500
X2092499Y1168500
X2126499Y1220500
X2001499Y1173500
X1915499Y1147579
X1775749Y1083750
X1775499Y1069500
X1751129Y979124
X1733349Y979050
X1746696Y1184303
X1709499Y1246500
X1654499Y1247500
X1641499Y1162500
X1551739Y1163200
X1539039Y1188600
X1513639
X1488239
X1462839
X1437439
X1412039
X1399339Y1214000
X1424739
X1450139
X1475539
X1500939
X1526339
X1551739
X1500939Y1163200
X1475539
X1462499Y1156500
X1462839Y1137800
X1437439
X1412039
X1424739Y1112400
X1437439Y1087000
X1462839
X1488239
X1475539Y1061600
Y1112400
X1500939
X1488239Y1137800
X1450139Y1163200
X1424739
X1419538Y1025800
X1409538Y1005800
X1429538
X1439538Y985800
Y945800
X1419538
X1409538Y965800
X1389538
X1369538
X1349538
X1339538Y985800
X1335839Y1087000
X1539039
X1526339Y1061600
X1577139
X1579538Y1025800
X1559538
X1549538Y1005800
X1569538
X1559538Y985800
X1539538
X1519538
X1479538
X1469538Y965800
X1459538Y945800
X1559538
X1579538
X1569538Y965800
X1579538Y985800
X1627499Y965500
X1629499Y1036500
X1688499Y1093500
X1724459Y949840
X1309538Y965800
X1319538Y985800
X1309538Y1005800
X1329538
X1319538Y1025800
X1323139Y1061600
X1310439Y1087000
X1323139Y1112400
X1310439Y1137800
X1284999Y1100500
X1220999Y1122500
X1178999Y1182500
X1165999
X1114999Y1178500
X1108749Y1195000
X1107999Y1228500
X1083999Y1207500
X1065999Y1191500
X1049999Y1183500
X1057999Y1167500
X1056646Y1157308
X1064000Y1151500
X1070999Y1147500
X1073249Y1138750
X1081999Y1130500
X1094718Y1129500
X1106020Y1108114
X1113999Y1100500
X1088931Y1101740
X1050758Y1097149
X1038999Y1165500
X1028000Y1163500
X1020750Y1158500
X1013999Y1153500
X983999Y1161500
X998999Y1206500
X1028999Y1232500
X1074999Y1240500
X939999Y1216250
X970999Y1106500
X842999Y1086000
X802999Y1155500
X789999Y1168500
X823999Y1220500
X864999Y1195500
X698999Y1173500
X612999Y1147579
X473249Y1083750
X472999Y1069500
X385999Y1093500
X338999Y1162500
X249239Y1163200
X236539Y1188600
X211139
X185739
X160339
X159999Y1156500
X160339Y1137800
X185739
X173039Y1112400
X198439
X185739Y1087000
X160339
X173039Y1061600
X223839
X236539Y1087000
X274639Y1061600
X277038Y1025800
X257038
X247038Y1005800
X267038
X257038Y985800
X237038
X217038
X177038
X167038Y965800
X157038Y945800
X257038
X277038
X267038Y965800
X277038Y985800
X324999Y965500
X326999Y1036500
X430849Y979050
X448629Y979124
X421959Y949840
X444196Y1184303
X406999Y1246500
X351999Y1247500
X249239Y1214000
X223839
X198439
X173039
X147639
Y1163200
X173039
X198439
X122239
X109539Y1137800
X134939
X122239Y1112400
X134939Y1087000
X117038Y1025800
X107038Y1005800
X127038
X137038Y985800
Y945800
X117038
X107038Y965800
X87038
X67038
X47038
X37038Y985800
X17038
X7038Y965800
Y1005800
X27038
X17038Y1025800
X20639Y1061600
X7939Y1087000
X33339
X20639Y1112400
X7939Y1137800
X109539Y1188600
X134939
X122239Y1214000
X96839
T03
X329001Y92000
X329001Y117000
X1631501
X1631501Y92000
X2273499Y1165500
X2273499Y1190500
X970999
X970999Y1165500
T04
X2169111Y383386
X2260551Y391080
Y436800
X2134821Y518006
X958051Y436800
Y391080
X866611Y383386
X832321Y518006
X467679Y764494
X433389Y899114
X341949Y891420
Y845700
X1644449
Y891420
X1735889Y899114
X1770179Y764494
T05
X920001Y73500
X2222501
Y148500
X2514551Y422830
Y472830
X1400001Y476600
X1377501
Y391600
X1400001
Y306600
X1377501
Y221600
X1400001
X1212051Y422830
Y472830
X920001Y148500
X97501Y221600
X75001
Y306600
X97501
Y391600
X75001
Y476600
X97501
X87949Y809670
Y859670
X215999Y718000
Y680500
X428309Y716160
X453309
X846691Y566340
X871691
X1084001Y564500
Y602000
X1202499Y805900
X1224999
Y890900
X1202499
X1390449Y859670
Y809670
X1518499Y718000
Y680500
X1730809Y716160
X1755809
X2149191Y566340
X2174191
X2386501Y564500
Y602000
X2504999Y805900
Y890900
X2527499
Y805900
Y975900
Y1060900
X2504999
Y975900
X1682499Y1134000
Y1209000
X1224999Y1060900
X1202499
Y975900
X1224999
X379999Y1134000
Y1209000
T06
X430201Y40000
X455601
X481001
X506401
X1732701
X1758101
X1783501
X1808901
X1814701Y241966
Y267366
Y292766
Y318166
Y343566
X1865501
Y318166
Y292766
Y267366
Y241966
X1893441
Y267366
Y292766
Y318166
Y343566
X1944241
Y318166
Y292766
Y267366
Y241966
X1972181
Y267366
Y292766
Y318166
Y343566
X2022981
Y318166
Y292766
Y267366
Y241966
X2050921
Y267366
Y292766
Y318166
Y343566
X2101721
Y318166
Y292766
Y267366
Y241966
X2084021Y391006
X2058621
X2033221
X2007821
X1982421
X1955751
X1930351
X1904951
X1879551
X1854151
X1827481
X1802081
X1776681
X1751281
X1743201Y343566
Y318166
Y292766
Y267366
Y241966
X1692401
Y267366
Y292766
Y318166
Y343566
X1664461
Y318166
Y292766
Y267366
Y241966
X1613661
Y267366
Y292766
Y318166
Y343566
X1585721
Y318166
Y292766
Y267366
Y241966
X1534921
Y267366
Y292766
Y318166
Y343566
X1506951
Y318166
Y292766
Y267366
Y241966
X1456151
Y267366
Y292766
Y318166
Y343566
X1469551Y391066
X1494951
X1520351
X1545751
X1571151
X1597611Y391006
X1623011
X1648411
X1673811
X1699211
X1725881
X781521
X756121
X730721
X705321
X679921
X653251
X627851
X602451
X577051
X551651
X563001Y343566
Y318166
Y292766
Y267366
Y241966
X590941
Y267366
Y292766
Y318166
Y343566
X641741
Y318166
Y292766
Y267366
Y241966
X669681
Y267366
Y292766
Y318166
Y343566
X720481
Y318166
Y292766
Y267366
Y241966
X748421
Y267366
Y292766
Y318166
Y343566
X799221
Y318166
Y292766
Y267366
Y241966
X512201
Y267366
Y292766
Y318166
Y343566
X499581Y391006
X524981
X474181
X448781
X423381
X396711
X371311
X345911
X320511
X295111
X268651Y391066
X243251
X217851
X192451
X167051
X153651Y343566
Y318166
Y292766
Y267366
Y241966
X204451
Y267366
Y292766
Y318166
Y343566
X232421
Y318166
Y292766
Y267366
Y241966
X283221
Y267366
Y292766
Y318166
Y343566
X311161
Y318166
Y292766
Y267366
Y241966
X361961
Y267366
Y292766
Y318166
Y343566
X389901
Y318166
Y292766
Y267366
Y241966
X440701
Y267366
Y292766
Y318166
Y343566
X448781Y543406
X474181
X499581
X524981
X423381
X396711
X371311
X345911
X320511
X295111
X268651Y543466
X243251
X217851
X192451
X167051
X518479Y739094
Y891494
X543879
X569279
X594679
X620079
X646749
X672149
X697549
X722949
X748349
X775019
X800419
X825819
X851219
X876619
X903289
X928689
Y739094
X903289
X876619
X851219
X825819
X800419
X775019
X748349
X722949
X697549
X672149
X646749
X620079
X594679
X569279
X543879
X551651Y543406
X577051
X602451
X627851
X653251
X679921
X705321
X730721
X756121
X781521
X954089Y739094
X979489
X1004889
X1031349Y739034
X1056749
X1082149
X1107549
X1132949
Y891434
X1107549
X1082149
X1056749
X1031349
X1004889Y891494
X979489
X954089
X1469551Y543466
X1494951
X1520351
X1545751
X1571151
X1597611Y543406
X1623011
X1648411
X1673811
X1699211
X1725881
X1751281
X1776681
X1802081
X1827481
X1854151
X1879551
X1904951
X1930351
X1955751
X1982421
X2007821
X2033221
X2058621
X2084021
X2077519Y739094
X2102919
X2050849
X2025449
X2000049
X1974649
X1949249
X1922579
X1897179
X1871779
X1846379
X1820979
Y891494
X1846379
X1871779
X1897179
X1922579
X1949249
X1974649
X2000049
X2025449
X2050849
X2077519
X2102919
X2128319
X2153719
X2179119
X2205789
X2231189
X2256589
X2281989
X2307389
X2333849Y891434
X2359249
X2384649
X2410049
X2435449
Y739034
X2410049
X2384649
X2359249
X2333849
X2307389Y739094
X2281989
X2256589
X2231189
X2205789
X2179119
X2153719
X2128319
X2161799Y938934
Y964334
Y989734
Y1015134
Y1040534
X2212599
Y1015134
Y989734
Y964334
Y938934
X2240539
Y964334
Y989734
Y1015134
Y1040534
X2291339
Y1015134
Y989734
Y964334
Y938934
X2319279
Y964334
Y989734
Y1015134
Y1040534
X2370079
Y1015134
Y989734
Y964334
Y938934
X2398049
Y964334
Y989734
Y1015134
Y1040534
X2448849
Y1015134
Y989734
Y964334
Y938934
X2172299Y1242500
X2146899
X2121499
X2096099
X2090299Y1040534
Y1015134
Y989734
Y964334
Y938934
X2039499
Y964334
Y989734
Y1015134
Y1040534
X2011559
Y1015134
Y989734
Y964334
Y938934
X1960759
Y964334
Y989734
Y1015134
Y1040534
X1932819
Y1015134
Y989734
Y964334
Y938934
X1882019
Y964334
Y989734
Y1015134
Y1040534
X1854079
Y1015134
Y989734
Y964334
Y938934
X1803279
Y964334
Y989734
Y1015134
Y1040534
X1146349
Y1015134
Y989734
Y964334
Y938934
X1095549
Y964334
Y989734
Y1015134
Y1040534
X1067579
Y1015134
Y989734
Y964334
Y938934
X1016779
Y964334
Y989734
Y1015134
Y1040534
X988839
Y1015134
Y989734
Y964334
Y938934
X938039
Y964334
Y989734
Y1015134
Y1040534
X910099
Y1015134
Y989734
Y964334
Y938934
X859299
Y964334
Y989734
Y1015134
Y1040534
X787799
Y1015134
Y989734
Y964334
Y938934
X736999
Y964334
Y989734
Y1015134
Y1040534
X709059
Y1015134
Y989734
Y964334
Y938934
X658259
Y964334
Y989734
Y1015134
Y1040534
X630319
Y1015134
Y989734
Y964334
Y938934
X579519
Y964334
Y989734
Y1015134
Y1040534
X551579
Y1015134
Y989734
Y964334
Y938934
X793599Y1242500
X818999
X844399
X869799
X500779Y1040534
Y1015134
Y989734
Y964334
Y938934
T07
X26201Y16000
X51601
X77001
X102401Y16000
X127801Y16000
X300422Y27579
X1005041Y76120
X1030441
X1328701Y16000
X1354101
X1379501
X1404901Y16000
X1430301Y16000
X1602922Y27579
X2307541Y76120
X2332941
X2576781Y331390
Y356790
X2454861Y269160
X2404861
X1798301Y149000
X1772901
X1747501
X1722101
X1696701
X1671301
X1274281Y331390
Y356790
X1152361Y269160
X1102361
X495801Y149000
X470401
X445001
X419601
X394201
X368801
X25719Y925710
X1328219
X2525499Y1266500
X2550899
X2576299
X2500099Y1266500
X2474699Y1266500
X2302078Y1254921
X2233699Y1133500
X2208299
X2182899
X2157499
X2132099
X2106699
X1597459Y1206380
X1572059
X1500139Y1013340
X1450139
X1328219Y951110
X1273799Y1266500
X1248399
X1222999
X1197599Y1266500
X1172199Y1266500
X999578Y1254921
X931199Y1133500
X905799
X880399
X854999
X829599
X804199
X294959Y1206380
X269559
X197639Y1013340
X147639
X25719Y951110
T08
X594401Y64830
X645201
X696001
X746801
X797601
X1896901
X1947701
X1998501
X2049301
X2100101
X1461501Y169000
X159001
X2443499Y1113500
X2008099Y1217670
X1957299
X1906499
X1855699
X1804899
X1140999Y1113500
X705599Y1217670
X654799
X603999
X553199
X502399
T09
X431471Y13330
X456871
X482271Y13330
X507671
X1733971Y13330
X1759371
X1784771Y13330
X1810171
X2145629Y1269170
X2171029
X2120229Y1269170
X2094829
X868529Y1269170
X843129
X817729Y1269170
X792329
T10
X594401Y28000
X645201
X696001
X746801
X797601
X1896901
X1947701
X1998501
X2049301
X2100101
X2008099Y1254500
X1957299
X1906499
X1855699
X1804899
X705599
X654799
X603999
X553199
X502399
T11
X50001Y106600
X1250001
X1352501
X2552501
X50001Y586600
X49999Y695900
X1249999
X1250001Y586600
X1352501
X1352499Y695900
X2552499
X2552501Y586600
X2552499Y1175900
X1352499
X1249999
X49999
M30
