G04*
G04 #@! TF.GenerationSoftware,Altium Limited,Altium Designer,20.0.14 (345)*
G04*
G04 Layer_Color=8388736*
%FSLAX44Y44*%
%MOMM*%
G71*
G01*
G75*
%ADD41C,0.5000*%
%ADD84R,1.4732X0.8382*%
%ADD85R,1.1032X1.0032*%
%ADD86R,1.0032X1.1032*%
%ADD87R,1.5032X1.9032*%
%ADD88R,6.2032X2.7032*%
%ADD89R,2.2032X3.7032*%
%ADD90O,1.9532X0.8532*%
%ADD91R,2.5032X2.7032*%
%ADD92R,1.0032X1.3032*%
%ADD93R,1.0032X1.2032*%
%ADD94O,2.4532X0.8532*%
%ADD95R,1.9032X1.5032*%
%ADD96R,1.7532X0.4532*%
%ADD97R,0.4532X1.7532*%
%ADD98R,3.4032X2.3032*%
%ADD99R,1.1032X2.3032*%
%ADD100R,1.0032X1.3032*%
%ADD101R,1.3032X1.0032*%
%ADD102R,1.4532X1.0032*%
%ADD103O,3.2032X4.2032*%
%ADD104R,4.4232X1.9532*%
%ADD105R,2.4532X0.9032*%
%ADD106O,2.4532X0.9032*%
%ADD107R,2.7032X2.5032*%
%ADD108R,1.4532X2.5032*%
%ADD109O,2.4532X1.0032*%
%ADD110R,1.2032X1.6032*%
%ADD111R,6.9532X7.1032*%
%ADD112R,3.1032X2.1032*%
%ADD113O,0.8532X2.4532*%
%ADD114R,1.0032X1.2032*%
%ADD115R,1.0032X1.3032*%
%ADD116C,2.2032*%
%ADD117R,2.7032X3.2032*%
%ADD118O,2.7032X3.2032*%
%ADD119C,1.2032*%
%ADD120O,3.2032X2.7032*%
%ADD121R,3.2032X2.7032*%
%ADD122R,2.7032X2.2032*%
%ADD123O,2.7032X2.2032*%
%ADD124C,0.2032*%
%ADD125R,2.0032X1.7032*%
%ADD126O,2.0032X1.7032*%
%ADD127O,1.7032X2.0032*%
%ADD128R,1.7032X2.0032*%
%ADD129O,1.9532X2.4532*%
%ADD130R,1.9532X2.4532*%
%ADD131C,3.2032*%
%ADD132R,3.2032X3.2032*%
%ADD133P,4.5300X4X180.0*%
%ADD134R,1.7032X2.2032*%
%ADD135O,1.7032X2.2032*%
%ADD136R,2.2032X2.2032*%
%ADD137R,2.2032X2.2032*%
%ADD138C,0.7032*%
D41*
X0Y0D02*
Y1283000D01*
X2603000D01*
X2603000Y0D01*
X0D02*
X2603000D01*
X-1Y1282500D02*
Y642500D01*
X1299999D02*
X-1D01*
X1300000Y1282500D02*
X1299999Y642500D01*
X1300000Y1282500D02*
X-1D01*
X1302499D02*
Y642500D01*
X2602499D02*
X1302499D01*
X2602500Y1282500D02*
X2602499Y642500D01*
X2602500Y1282500D02*
X1302499D01*
X2602501Y0D02*
Y640000D01*
X1302501D02*
X2602501D01*
X1302500Y0D02*
X1302501Y640000D01*
X1302500Y0D02*
X2602501D01*
X1300001D02*
Y640000D01*
X1D02*
X1300001D01*
X0Y0D02*
X1Y640000D01*
X0Y0D02*
X1300001D01*
D84*
X740749Y1197750D02*
D03*
Y1207910D02*
D03*
X986999Y1097500D02*
D03*
Y1107660D02*
D03*
X1076999Y1255420D02*
D03*
Y1265580D02*
D03*
X2043249Y1197750D02*
D03*
Y1207910D02*
D03*
X2289499Y1097500D02*
D03*
Y1107660D02*
D03*
X2379499Y1255420D02*
D03*
Y1265580D02*
D03*
X1861751Y84750D02*
D03*
Y74590D02*
D03*
X1615501Y185000D02*
D03*
Y174840D02*
D03*
X1525501Y27080D02*
D03*
Y16920D02*
D03*
X559251Y84750D02*
D03*
Y74590D02*
D03*
X313001Y185000D02*
D03*
Y174840D02*
D03*
X223001Y27080D02*
D03*
Y16920D02*
D03*
D85*
X1114999Y1234000D02*
D03*
Y1217000D02*
D03*
X219999Y785000D02*
D03*
Y768000D02*
D03*
X829999Y1111000D02*
D03*
Y1094000D02*
D03*
X854999Y1111000D02*
D03*
Y1094000D02*
D03*
X880999Y1111000D02*
D03*
Y1094000D02*
D03*
X905622Y1111053D02*
D03*
Y1094053D02*
D03*
X511999Y1107000D02*
D03*
Y1124000D02*
D03*
X545999Y1124000D02*
D03*
Y1107000D02*
D03*
X528999Y1107000D02*
D03*
Y1124000D02*
D03*
X1114999Y1168000D02*
D03*
Y1185000D02*
D03*
X852999Y1178000D02*
D03*
Y1195000D02*
D03*
X1140999Y1225000D02*
D03*
Y1242000D02*
D03*
X304999Y703000D02*
D03*
Y686000D02*
D03*
X1100999Y1234000D02*
D03*
Y1217000D02*
D03*
X490539Y762344D02*
D03*
Y779344D02*
D03*
X2417499Y1234000D02*
D03*
Y1217000D02*
D03*
X1522499Y785000D02*
D03*
Y768000D02*
D03*
X2132499Y1111000D02*
D03*
Y1094000D02*
D03*
X2157499Y1111000D02*
D03*
Y1094000D02*
D03*
X2183499Y1111000D02*
D03*
Y1094000D02*
D03*
X2208122Y1111053D02*
D03*
Y1094053D02*
D03*
X1814499Y1107000D02*
D03*
Y1124000D02*
D03*
X1848499Y1124000D02*
D03*
Y1107000D02*
D03*
X1831499Y1107000D02*
D03*
Y1124000D02*
D03*
X2417499Y1168000D02*
D03*
Y1185000D02*
D03*
X2155499Y1178000D02*
D03*
Y1195000D02*
D03*
X2443499Y1225000D02*
D03*
Y1242000D02*
D03*
X1607499Y703000D02*
D03*
Y686000D02*
D03*
X2403499Y1234000D02*
D03*
Y1217000D02*
D03*
X1793039Y762344D02*
D03*
Y779344D02*
D03*
X1487501Y48500D02*
D03*
Y65500D02*
D03*
X2382501Y497500D02*
D03*
Y514500D02*
D03*
X1772501Y171500D02*
D03*
Y188500D02*
D03*
X1747501Y171500D02*
D03*
Y188500D02*
D03*
X1721501Y171500D02*
D03*
Y188500D02*
D03*
X1696878Y171447D02*
D03*
Y188447D02*
D03*
X2090501Y175500D02*
D03*
Y158500D02*
D03*
X2056501Y158500D02*
D03*
Y175500D02*
D03*
X2073501Y175500D02*
D03*
Y158500D02*
D03*
X1487501Y114500D02*
D03*
Y97500D02*
D03*
X1749501Y104500D02*
D03*
Y87500D02*
D03*
X1461501Y57500D02*
D03*
Y40500D02*
D03*
X2297501Y579500D02*
D03*
Y596500D02*
D03*
X1501501Y48500D02*
D03*
Y65500D02*
D03*
X2111961Y520156D02*
D03*
Y503156D02*
D03*
X185001Y48500D02*
D03*
Y65500D02*
D03*
X1080001Y497500D02*
D03*
Y514500D02*
D03*
X470001Y171500D02*
D03*
Y188500D02*
D03*
X445001Y171500D02*
D03*
Y188500D02*
D03*
X419001Y171500D02*
D03*
Y188500D02*
D03*
X394378Y171447D02*
D03*
Y188447D02*
D03*
X788001Y175500D02*
D03*
Y158500D02*
D03*
X754001Y158500D02*
D03*
Y175500D02*
D03*
X771001Y175500D02*
D03*
Y158500D02*
D03*
X185001Y114500D02*
D03*
Y97500D02*
D03*
X447001Y104500D02*
D03*
Y87500D02*
D03*
X159001Y57500D02*
D03*
Y40500D02*
D03*
X995001Y579500D02*
D03*
Y596500D02*
D03*
X199001Y48500D02*
D03*
Y65500D02*
D03*
X809461Y520156D02*
D03*
Y503156D02*
D03*
D86*
X187499Y805500D02*
D03*
X170499D02*
D03*
X203499D02*
D03*
X220499D02*
D03*
X476499Y1153500D02*
D03*
X493499D02*
D03*
X513499Y1148500D02*
D03*
X530499D02*
D03*
X614499Y1093500D02*
D03*
X597499D02*
D03*
X675783Y1152733D02*
D03*
X658783D02*
D03*
X954499Y1222500D02*
D03*
X971499D02*
D03*
X1039499Y1238500D02*
D03*
X1056499D02*
D03*
X970499Y1148500D02*
D03*
X953499D02*
D03*
X658342Y1102104D02*
D03*
X675342D02*
D03*
X658499Y1119259D02*
D03*
X675499D02*
D03*
X757499Y1222500D02*
D03*
X740499D02*
D03*
X675499Y1136500D02*
D03*
X658499D02*
D03*
X324499Y1049500D02*
D03*
X341499D02*
D03*
X403499Y1079500D02*
D03*
X386499Y1079500D02*
D03*
X783261Y1147533D02*
D03*
X766261D02*
D03*
X971499Y1207500D02*
D03*
X954499D02*
D03*
X953499Y1131500D02*
D03*
X970499D02*
D03*
X1039597Y1254110D02*
D03*
X1056597D02*
D03*
X1094499Y1121500D02*
D03*
X1111499D02*
D03*
X1489999Y805500D02*
D03*
X1472999D02*
D03*
X1505999D02*
D03*
X1522999D02*
D03*
X1778999Y1153500D02*
D03*
X1795999D02*
D03*
X1815999Y1148500D02*
D03*
X1832999D02*
D03*
X1916999Y1093500D02*
D03*
X1899999D02*
D03*
X1978283Y1152733D02*
D03*
X1961283D02*
D03*
X2256999Y1222500D02*
D03*
X2273999D02*
D03*
X2341999Y1238500D02*
D03*
X2358999D02*
D03*
X2272999Y1148500D02*
D03*
X2255999D02*
D03*
X1960842Y1102104D02*
D03*
X1977842D02*
D03*
X1960999Y1119259D02*
D03*
X1977999D02*
D03*
X2059999Y1222500D02*
D03*
X2042999D02*
D03*
X1977999Y1136500D02*
D03*
X1960999D02*
D03*
X1626999Y1049500D02*
D03*
X1643999D02*
D03*
X1705999Y1079500D02*
D03*
X1688999Y1079500D02*
D03*
X2085761Y1147533D02*
D03*
X2068761D02*
D03*
X2273999Y1207500D02*
D03*
X2256999D02*
D03*
X2255999Y1131500D02*
D03*
X2272999D02*
D03*
X2342097Y1254110D02*
D03*
X2359097D02*
D03*
X2396999Y1121500D02*
D03*
X2413999D02*
D03*
X2415001Y477000D02*
D03*
X2432001D02*
D03*
X2399001D02*
D03*
X2382001D02*
D03*
X2126001Y129000D02*
D03*
X2109001D02*
D03*
X2089001Y134000D02*
D03*
X2072001D02*
D03*
X1988001Y189000D02*
D03*
X2005001D02*
D03*
X1926717Y129767D02*
D03*
X1943717D02*
D03*
X1648001Y60000D02*
D03*
X1631001D02*
D03*
X1563001Y44000D02*
D03*
X1546001D02*
D03*
X1632001Y134000D02*
D03*
X1649001D02*
D03*
X1944158Y180396D02*
D03*
X1927158D02*
D03*
X1944001Y163241D02*
D03*
X1927001D02*
D03*
X1845001Y60000D02*
D03*
X1862001D02*
D03*
X1927001Y146000D02*
D03*
X1944001D02*
D03*
X2278001Y233000D02*
D03*
X2261001D02*
D03*
X2199001Y203000D02*
D03*
X2216001Y203000D02*
D03*
X1819239Y134967D02*
D03*
X1836239D02*
D03*
X1631001Y75000D02*
D03*
X1648001D02*
D03*
X1649001Y151000D02*
D03*
X1632001D02*
D03*
X1562903Y28390D02*
D03*
X1545903D02*
D03*
X1508001Y161000D02*
D03*
X1491001D02*
D03*
X1112501Y477000D02*
D03*
X1129501D02*
D03*
X1096501D02*
D03*
X1079501D02*
D03*
X823501Y129000D02*
D03*
X806501D02*
D03*
X786501Y134000D02*
D03*
X769501D02*
D03*
X685501Y189000D02*
D03*
X702501D02*
D03*
X624217Y129767D02*
D03*
X641217D02*
D03*
X345501Y60000D02*
D03*
X328501D02*
D03*
X260501Y44000D02*
D03*
X243501D02*
D03*
X329501Y134000D02*
D03*
X346501D02*
D03*
X641658Y180396D02*
D03*
X624658D02*
D03*
X641501Y163241D02*
D03*
X624501D02*
D03*
X542501Y60000D02*
D03*
X559501D02*
D03*
X624501Y146000D02*
D03*
X641501D02*
D03*
X975501Y233000D02*
D03*
X958501D02*
D03*
X896501Y203000D02*
D03*
X913501Y203000D02*
D03*
X516739Y134967D02*
D03*
X533739D02*
D03*
X328501Y75000D02*
D03*
X345501D02*
D03*
X346501Y151000D02*
D03*
X329501D02*
D03*
X260403Y28390D02*
D03*
X243403D02*
D03*
X205501Y161000D02*
D03*
X188501D02*
D03*
D87*
X280999Y703500D02*
D03*
X252999D02*
D03*
X1583499D02*
D03*
X1555499D02*
D03*
X2321501Y579000D02*
D03*
X2349501D02*
D03*
X1019001D02*
D03*
X1047001D02*
D03*
D88*
X274999Y785000D02*
D03*
Y738000D02*
D03*
X1577499Y785000D02*
D03*
Y738000D02*
D03*
X2327501Y497500D02*
D03*
Y544500D02*
D03*
X1025001Y497500D02*
D03*
Y544500D02*
D03*
D89*
X158794Y763975D02*
D03*
X1461294D02*
D03*
X2443706Y518526D02*
D03*
X1141206D02*
D03*
D90*
X130964Y783025D02*
D03*
Y770324D02*
D03*
Y757625D02*
D03*
Y744924D02*
D03*
X186464Y783025D02*
D03*
Y770324D02*
D03*
Y757625D02*
D03*
Y744924D02*
D03*
X1433464Y783025D02*
D03*
Y770324D02*
D03*
Y757625D02*
D03*
Y744924D02*
D03*
X1488964Y783025D02*
D03*
Y770324D02*
D03*
Y757625D02*
D03*
Y744924D02*
D03*
X2471536Y499476D02*
D03*
Y512175D02*
D03*
Y524875D02*
D03*
Y537575D02*
D03*
X2416036Y499476D02*
D03*
Y512175D02*
D03*
Y524875D02*
D03*
Y537575D02*
D03*
X1169036Y499476D02*
D03*
Y512175D02*
D03*
Y524875D02*
D03*
Y537575D02*
D03*
X1113536Y499476D02*
D03*
Y512175D02*
D03*
Y524875D02*
D03*
Y537575D02*
D03*
D91*
X443999Y1079500D02*
D03*
Y1119500D02*
D03*
X1746499Y1079500D02*
D03*
Y1119500D02*
D03*
X2158501Y203000D02*
D03*
Y163000D02*
D03*
X856001Y203000D02*
D03*
Y163000D02*
D03*
D92*
X475999Y1134500D02*
D03*
X494999D02*
D03*
X414499Y1180000D02*
D03*
X433499D02*
D03*
X1778499Y1134500D02*
D03*
X1797499D02*
D03*
X1716999Y1180000D02*
D03*
X1735999D02*
D03*
X2126501Y148000D02*
D03*
X2107501D02*
D03*
X824001D02*
D03*
X805001D02*
D03*
D93*
X485499Y1107500D02*
D03*
X423999Y1207000D02*
D03*
X1787999Y1107500D02*
D03*
X1726499Y1207000D02*
D03*
X2117001Y175000D02*
D03*
X814501D02*
D03*
D94*
X574169Y1149550D02*
D03*
Y1136850D02*
D03*
Y1124150D02*
D03*
Y1111450D02*
D03*
X629669Y1149550D02*
D03*
Y1136850D02*
D03*
Y1124150D02*
D03*
Y1111450D02*
D03*
X1876669Y1149550D02*
D03*
Y1136850D02*
D03*
Y1124150D02*
D03*
Y1111450D02*
D03*
X1932169Y1149550D02*
D03*
Y1136850D02*
D03*
Y1124150D02*
D03*
Y1111450D02*
D03*
X2028331Y132950D02*
D03*
Y145650D02*
D03*
Y158350D02*
D03*
Y171050D02*
D03*
X1972831Y132950D02*
D03*
Y145650D02*
D03*
Y158350D02*
D03*
Y171050D02*
D03*
X725831Y132950D02*
D03*
Y145650D02*
D03*
Y158350D02*
D03*
Y171050D02*
D03*
X670331Y132950D02*
D03*
Y145650D02*
D03*
Y158350D02*
D03*
Y171050D02*
D03*
D95*
X59999Y1015500D02*
D03*
Y987500D02*
D03*
X85589Y1015493D02*
D03*
Y987494D02*
D03*
X282999Y1073500D02*
D03*
Y1045500D02*
D03*
X1362499Y1015500D02*
D03*
Y987500D02*
D03*
X1388089Y1015493D02*
D03*
Y987494D02*
D03*
X1585499Y1073500D02*
D03*
Y1045500D02*
D03*
X2542501Y267000D02*
D03*
Y295000D02*
D03*
X2516911Y267007D02*
D03*
Y295007D02*
D03*
X2319501Y209000D02*
D03*
Y237000D02*
D03*
X1240001Y267000D02*
D03*
Y295000D02*
D03*
X1214411Y267007D02*
D03*
Y295007D02*
D03*
X1017001Y209000D02*
D03*
Y237000D02*
D03*
D96*
X998999Y1194000D02*
D03*
Y1189000D02*
D03*
Y1184000D02*
D03*
Y1179000D02*
D03*
Y1174000D02*
D03*
Y1169000D02*
D03*
Y1164000D02*
D03*
Y1159000D02*
D03*
Y1154000D02*
D03*
Y1149000D02*
D03*
Y1144000D02*
D03*
Y1139000D02*
D03*
X1088999D02*
D03*
Y1144000D02*
D03*
Y1149000D02*
D03*
Y1154000D02*
D03*
Y1159000D02*
D03*
Y1164000D02*
D03*
Y1169000D02*
D03*
Y1174000D02*
D03*
Y1179000D02*
D03*
Y1184000D02*
D03*
Y1189000D02*
D03*
Y1194000D02*
D03*
X2301499D02*
D03*
Y1189000D02*
D03*
Y1184000D02*
D03*
Y1179000D02*
D03*
Y1174000D02*
D03*
Y1169000D02*
D03*
Y1164000D02*
D03*
Y1159000D02*
D03*
Y1154000D02*
D03*
Y1149000D02*
D03*
Y1144000D02*
D03*
Y1139000D02*
D03*
X2391499D02*
D03*
Y1144000D02*
D03*
Y1149000D02*
D03*
Y1154000D02*
D03*
Y1159000D02*
D03*
Y1164000D02*
D03*
Y1169000D02*
D03*
Y1174000D02*
D03*
Y1179000D02*
D03*
Y1184000D02*
D03*
Y1189000D02*
D03*
Y1194000D02*
D03*
X1603501Y88500D02*
D03*
Y93500D02*
D03*
Y98500D02*
D03*
Y103500D02*
D03*
Y108500D02*
D03*
Y113500D02*
D03*
Y118500D02*
D03*
Y123500D02*
D03*
Y128500D02*
D03*
Y133500D02*
D03*
Y138500D02*
D03*
Y143500D02*
D03*
X1513501D02*
D03*
Y138500D02*
D03*
Y133500D02*
D03*
Y128500D02*
D03*
Y123500D02*
D03*
Y118500D02*
D03*
Y113500D02*
D03*
Y108500D02*
D03*
Y103500D02*
D03*
Y98500D02*
D03*
Y93500D02*
D03*
Y88500D02*
D03*
X301001D02*
D03*
Y93500D02*
D03*
Y98500D02*
D03*
Y103500D02*
D03*
Y108500D02*
D03*
Y113500D02*
D03*
Y118500D02*
D03*
Y123500D02*
D03*
Y128500D02*
D03*
Y133500D02*
D03*
Y138500D02*
D03*
Y143500D02*
D03*
X211001D02*
D03*
Y138500D02*
D03*
Y133500D02*
D03*
Y128500D02*
D03*
Y123500D02*
D03*
Y118500D02*
D03*
Y113500D02*
D03*
Y108500D02*
D03*
Y103500D02*
D03*
Y98500D02*
D03*
Y93500D02*
D03*
Y88500D02*
D03*
D97*
X1016499Y1121500D02*
D03*
X1021499D02*
D03*
X1026499D02*
D03*
X1031499D02*
D03*
X1036499D02*
D03*
X1041499D02*
D03*
X1046499D02*
D03*
X1051499D02*
D03*
X1056499D02*
D03*
X1061499D02*
D03*
X1066499D02*
D03*
X1071499D02*
D03*
Y1211500D02*
D03*
X1066499D02*
D03*
X1061499D02*
D03*
X1056499D02*
D03*
X1051499D02*
D03*
X1046499D02*
D03*
X1041499D02*
D03*
X1036499D02*
D03*
X1031499D02*
D03*
X1026499D02*
D03*
X1021499D02*
D03*
X1016499D02*
D03*
X2318999Y1121500D02*
D03*
X2323999D02*
D03*
X2328999D02*
D03*
X2333999D02*
D03*
X2338999D02*
D03*
X2343999D02*
D03*
X2348999D02*
D03*
X2353999D02*
D03*
X2358999D02*
D03*
X2363999D02*
D03*
X2368999D02*
D03*
X2373999D02*
D03*
Y1211500D02*
D03*
X2368999D02*
D03*
X2363999D02*
D03*
X2358999D02*
D03*
X2353999D02*
D03*
X2348999D02*
D03*
X2343999D02*
D03*
X2338999D02*
D03*
X2333999D02*
D03*
X2328999D02*
D03*
X2323999D02*
D03*
X2318999D02*
D03*
X1586001Y161000D02*
D03*
X1581001D02*
D03*
X1576001D02*
D03*
X1571001D02*
D03*
X1566001D02*
D03*
X1561001D02*
D03*
X1556001D02*
D03*
X1551001D02*
D03*
X1546001D02*
D03*
X1541001D02*
D03*
X1536001D02*
D03*
X1531001D02*
D03*
Y71000D02*
D03*
X1536001D02*
D03*
X1541001D02*
D03*
X1546001D02*
D03*
X1551001D02*
D03*
X1556001D02*
D03*
X1561001D02*
D03*
X1566001D02*
D03*
X1571001D02*
D03*
X1576001D02*
D03*
X1581001D02*
D03*
X1586001D02*
D03*
X283501Y161000D02*
D03*
X278501D02*
D03*
X273501D02*
D03*
X268501D02*
D03*
X263501D02*
D03*
X258501D02*
D03*
X253501D02*
D03*
X248501D02*
D03*
X243501D02*
D03*
X238501D02*
D03*
X233501D02*
D03*
X228501D02*
D03*
Y71000D02*
D03*
X233501D02*
D03*
X238501D02*
D03*
X243501D02*
D03*
X248501D02*
D03*
X253501D02*
D03*
X258501D02*
D03*
X263501D02*
D03*
X268501D02*
D03*
X273501D02*
D03*
X278501D02*
D03*
X283501D02*
D03*
D98*
X386039Y992730D02*
D03*
X145999Y661000D02*
D03*
X1688539Y992730D02*
D03*
X1448499Y661000D02*
D03*
X2216461Y289770D02*
D03*
X2456501Y621500D02*
D03*
X913961Y289770D02*
D03*
X1154001Y621500D02*
D03*
D99*
X363039Y1049730D02*
D03*
X386039D02*
D03*
X409039D02*
D03*
X168999Y718000D02*
D03*
X145999D02*
D03*
X122999D02*
D03*
X1665539Y1049730D02*
D03*
X1688539D02*
D03*
X1711539D02*
D03*
X1471499Y718000D02*
D03*
X1448499D02*
D03*
X1425499D02*
D03*
X2239461Y232770D02*
D03*
X2216461D02*
D03*
X2193461D02*
D03*
X2433501Y564500D02*
D03*
X2456501D02*
D03*
X2479501D02*
D03*
X936961Y232770D02*
D03*
X913961D02*
D03*
X890961D02*
D03*
X1131001Y564500D02*
D03*
X1154001D02*
D03*
X1177001D02*
D03*
D100*
X431499Y1155500D02*
D03*
X414499D02*
D03*
X1733999D02*
D03*
X1716999D02*
D03*
X2171001Y127000D02*
D03*
X2188001D02*
D03*
X868501D02*
D03*
X885501D02*
D03*
D101*
X1165999Y1225000D02*
D03*
Y1242000D02*
D03*
X1183999D02*
D03*
X1183999Y1225000D02*
D03*
X325439Y892300D02*
D03*
Y875300D02*
D03*
Y861820D02*
D03*
Y844820D02*
D03*
X2468499Y1225000D02*
D03*
Y1242000D02*
D03*
X2486499D02*
D03*
X2486499Y1225000D02*
D03*
X1627939Y892300D02*
D03*
Y875300D02*
D03*
Y861820D02*
D03*
Y844820D02*
D03*
X1436501Y57500D02*
D03*
Y40500D02*
D03*
X1418501D02*
D03*
X1418501Y57500D02*
D03*
X2277061Y390200D02*
D03*
Y407200D02*
D03*
Y420680D02*
D03*
Y437680D02*
D03*
X134001Y57500D02*
D03*
Y40500D02*
D03*
X116001D02*
D03*
X116001Y57500D02*
D03*
X974561Y390200D02*
D03*
Y407200D02*
D03*
Y420680D02*
D03*
Y437680D02*
D03*
D102*
X554999Y815000D02*
D03*
Y796000D02*
D03*
X524999Y805500D02*
D03*
X634999Y686000D02*
D03*
Y705000D02*
D03*
X664999Y695500D02*
D03*
X1857499Y815000D02*
D03*
Y796000D02*
D03*
X1827499Y805500D02*
D03*
X1937499Y686000D02*
D03*
Y705000D02*
D03*
X1967499Y695500D02*
D03*
X2047501Y467500D02*
D03*
Y486500D02*
D03*
X2077501Y477000D02*
D03*
X1967501Y596500D02*
D03*
Y577500D02*
D03*
X1937501Y587000D02*
D03*
X745001Y467500D02*
D03*
Y486500D02*
D03*
X775001Y477000D02*
D03*
X665001Y596500D02*
D03*
Y577500D02*
D03*
X635001Y587000D02*
D03*
D103*
X891999Y1177500D02*
D03*
X2194499D02*
D03*
X1710501Y105000D02*
D03*
X408001D02*
D03*
D104*
X73979Y902980D02*
D03*
Y950980D02*
D03*
X1376479Y902980D02*
D03*
Y950980D02*
D03*
X2528521Y379520D02*
D03*
Y331520D02*
D03*
X1226021Y379520D02*
D03*
Y331520D02*
D03*
D105*
X362269Y949914D02*
D03*
X1664769D02*
D03*
X2240231Y332586D02*
D03*
X937731D02*
D03*
D106*
X362269Y937214D02*
D03*
Y924514D02*
D03*
Y911814D02*
D03*
Y899114D02*
D03*
Y886414D02*
D03*
Y873714D02*
D03*
Y861014D02*
D03*
Y848314D02*
D03*
Y835614D02*
D03*
Y822914D02*
D03*
Y810214D02*
D03*
Y797514D02*
D03*
Y784814D02*
D03*
X462769D02*
D03*
Y797514D02*
D03*
Y810214D02*
D03*
Y822914D02*
D03*
Y835614D02*
D03*
Y848314D02*
D03*
Y861014D02*
D03*
Y873714D02*
D03*
Y886414D02*
D03*
Y899114D02*
D03*
Y911814D02*
D03*
Y924514D02*
D03*
Y937214D02*
D03*
Y949914D02*
D03*
X1664769Y937214D02*
D03*
Y924514D02*
D03*
Y911814D02*
D03*
Y899114D02*
D03*
Y886414D02*
D03*
Y873714D02*
D03*
Y861014D02*
D03*
Y848314D02*
D03*
Y835614D02*
D03*
Y822914D02*
D03*
Y810214D02*
D03*
Y797514D02*
D03*
Y784814D02*
D03*
X1765269D02*
D03*
Y797514D02*
D03*
Y810214D02*
D03*
Y822914D02*
D03*
Y835614D02*
D03*
Y848314D02*
D03*
Y861014D02*
D03*
Y873714D02*
D03*
Y886414D02*
D03*
Y899114D02*
D03*
Y911814D02*
D03*
Y924514D02*
D03*
Y937214D02*
D03*
Y949914D02*
D03*
X2240231Y345286D02*
D03*
Y357986D02*
D03*
Y370686D02*
D03*
Y383386D02*
D03*
Y396086D02*
D03*
Y408786D02*
D03*
Y421486D02*
D03*
Y434186D02*
D03*
Y446886D02*
D03*
Y459586D02*
D03*
Y472286D02*
D03*
Y484986D02*
D03*
Y497686D02*
D03*
X2139731D02*
D03*
Y484986D02*
D03*
Y472286D02*
D03*
Y459586D02*
D03*
Y446886D02*
D03*
Y434186D02*
D03*
Y421486D02*
D03*
Y408786D02*
D03*
Y396086D02*
D03*
Y383386D02*
D03*
Y370686D02*
D03*
Y357986D02*
D03*
Y345286D02*
D03*
Y332586D02*
D03*
X937731Y345286D02*
D03*
Y357986D02*
D03*
Y370686D02*
D03*
Y383386D02*
D03*
Y396086D02*
D03*
Y408786D02*
D03*
Y421486D02*
D03*
Y434186D02*
D03*
Y446886D02*
D03*
Y459586D02*
D03*
Y472286D02*
D03*
Y484986D02*
D03*
Y497686D02*
D03*
X837231D02*
D03*
Y484986D02*
D03*
Y472286D02*
D03*
Y459586D02*
D03*
Y446886D02*
D03*
Y434186D02*
D03*
Y421486D02*
D03*
Y408786D02*
D03*
Y396086D02*
D03*
Y383386D02*
D03*
Y370686D02*
D03*
Y357986D02*
D03*
Y345286D02*
D03*
Y332586D02*
D03*
D107*
X221999Y1160500D02*
D03*
X266999D02*
D03*
X221999Y1123500D02*
D03*
X266999D02*
D03*
X1524499Y1160500D02*
D03*
X1569499D02*
D03*
X1524499Y1123500D02*
D03*
X1569499D02*
D03*
X2380501Y122000D02*
D03*
X2335501D02*
D03*
X2380501Y159000D02*
D03*
X2335501D02*
D03*
X1078001Y122000D02*
D03*
X1033001D02*
D03*
X1078001Y159000D02*
D03*
X1033001D02*
D03*
D108*
X252499Y1085800D02*
D03*
X205499D02*
D03*
Y1051500D02*
D03*
X252499D02*
D03*
X1554999Y1085800D02*
D03*
X1507999D02*
D03*
Y1051500D02*
D03*
X1554999D02*
D03*
X2350001Y196700D02*
D03*
X2397001D02*
D03*
Y231000D02*
D03*
X2350001D02*
D03*
X1047501Y196700D02*
D03*
X1094501D02*
D03*
Y231000D02*
D03*
X1047501D02*
D03*
D109*
X766940Y1205663D02*
D03*
Y1192963D02*
D03*
Y1180263D02*
D03*
Y1167563D02*
D03*
X822440Y1205663D02*
D03*
Y1192963D02*
D03*
Y1180263D02*
D03*
Y1167563D02*
D03*
X2069440Y1205663D02*
D03*
Y1192963D02*
D03*
Y1180263D02*
D03*
Y1167563D02*
D03*
X2124940Y1205663D02*
D03*
Y1192963D02*
D03*
Y1180263D02*
D03*
Y1167563D02*
D03*
X1835560Y76837D02*
D03*
Y89537D02*
D03*
Y102237D02*
D03*
Y114937D02*
D03*
X1780060Y76837D02*
D03*
Y89537D02*
D03*
Y102237D02*
D03*
Y114937D02*
D03*
X533060Y76837D02*
D03*
Y89537D02*
D03*
Y102237D02*
D03*
Y114937D02*
D03*
X477560Y76837D02*
D03*
Y89537D02*
D03*
Y102237D02*
D03*
Y114937D02*
D03*
D110*
X150999Y817500D02*
D03*
X130999D02*
D03*
X1453499D02*
D03*
X1433499D02*
D03*
X2451501Y465000D02*
D03*
X2471501D02*
D03*
X1149001D02*
D03*
X1169001D02*
D03*
D111*
X81999Y1087700D02*
D03*
X211239Y939680D02*
D03*
X1384499Y1087700D02*
D03*
X1513739Y939680D02*
D03*
X2520501Y194800D02*
D03*
X2391261Y342820D02*
D03*
X1218001Y194800D02*
D03*
X1088761Y342820D02*
D03*
D112*
X152999Y1110500D02*
D03*
Y1064900D02*
D03*
X140239Y916880D02*
D03*
Y962480D02*
D03*
X1455499Y1110500D02*
D03*
Y1064900D02*
D03*
X1442739Y916880D02*
D03*
Y962480D02*
D03*
X2449501Y172000D02*
D03*
Y217600D02*
D03*
X2462261Y365620D02*
D03*
Y320020D02*
D03*
X1147001Y172000D02*
D03*
Y217600D02*
D03*
X1159761Y365620D02*
D03*
Y320020D02*
D03*
D113*
X1179049Y1204170D02*
D03*
X1166349D02*
D03*
X1153649D02*
D03*
X1140949D02*
D03*
X1179049Y1148670D02*
D03*
X1166349D02*
D03*
X1153649D02*
D03*
X1140949D02*
D03*
X2481549Y1204170D02*
D03*
X2468849D02*
D03*
X2456149D02*
D03*
X2443449D02*
D03*
X2481549Y1148670D02*
D03*
X2468849D02*
D03*
X2456149D02*
D03*
X2443449D02*
D03*
X1423451Y78330D02*
D03*
X1436151D02*
D03*
X1448851D02*
D03*
X1461551D02*
D03*
X1423451Y133830D02*
D03*
X1436151D02*
D03*
X1448851D02*
D03*
X1461551D02*
D03*
X120951Y78330D02*
D03*
X133651D02*
D03*
X146351D02*
D03*
X159051D02*
D03*
X120951Y133830D02*
D03*
X133651D02*
D03*
X146351D02*
D03*
X159051D02*
D03*
D114*
X2178501Y75500D02*
D03*
X876001D02*
D03*
D115*
X2188001Y102500D02*
D03*
X2169001D02*
D03*
X885501D02*
D03*
X866501D02*
D03*
D116*
X931199Y1133500D02*
D03*
X844399Y1242500D02*
D03*
X818999D02*
D03*
X793599D02*
D03*
X1197599Y1266500D02*
D03*
X1222999Y1266500D02*
D03*
X1248399D02*
D03*
X1273799D02*
D03*
X269559Y1206380D02*
D03*
X25719Y925710D02*
D03*
X804199Y1133500D02*
D03*
X829599D02*
D03*
X854999D02*
D03*
X880399D02*
D03*
X2233699D02*
D03*
X2146899Y1242500D02*
D03*
X2121499D02*
D03*
X2096099D02*
D03*
X2500099Y1266500D02*
D03*
X2525499Y1266500D02*
D03*
X2550899D02*
D03*
X2576299D02*
D03*
X1572059Y1206380D02*
D03*
X1328219Y925710D02*
D03*
X2106699Y1133500D02*
D03*
X2132099D02*
D03*
X2157499D02*
D03*
X2182899D02*
D03*
X1671301Y149000D02*
D03*
X1758101Y40000D02*
D03*
X1783501D02*
D03*
X1808901D02*
D03*
X1404901Y16000D02*
D03*
X1379501Y16000D02*
D03*
X1354101D02*
D03*
X1328701D02*
D03*
X2332941Y76120D02*
D03*
X2576781Y356790D02*
D03*
X1798301Y149000D02*
D03*
X1772901D02*
D03*
X1747501D02*
D03*
X1722101D02*
D03*
X368801D02*
D03*
X455601Y40000D02*
D03*
X481001D02*
D03*
X506401D02*
D03*
X102401Y16000D02*
D03*
X77001Y16000D02*
D03*
X51601D02*
D03*
X26201D02*
D03*
X1030441Y76120D02*
D03*
X1274281Y356790D02*
D03*
X495801Y149000D02*
D03*
X470401D02*
D03*
X445001D02*
D03*
X419601D02*
D03*
D117*
X147639Y1013340D02*
D03*
X1450139D02*
D03*
X2454861Y269160D02*
D03*
X1152361D02*
D03*
D118*
X197639Y1013340D02*
D03*
X1500139D02*
D03*
X2404861Y269160D02*
D03*
X1102361D02*
D03*
D119*
X970999Y1190500D02*
D03*
X970999Y1165500D02*
D03*
X2273499Y1190500D02*
D03*
X2273499Y1165500D02*
D03*
X1631501Y92000D02*
D03*
X1631501Y117000D02*
D03*
X329001Y92000D02*
D03*
X329001Y117000D02*
D03*
D120*
X87949Y809670D02*
D03*
X1390449D02*
D03*
X2514551Y472830D02*
D03*
X1212051D02*
D03*
D121*
X87949Y859670D02*
D03*
X379999Y1134000D02*
D03*
X1390449Y859670D02*
D03*
X1682499Y1134000D02*
D03*
X2514551Y422830D02*
D03*
X2222501Y148500D02*
D03*
X1212051Y422830D02*
D03*
X920001Y148500D02*
D03*
D122*
X215999Y718000D02*
D03*
X1518499D02*
D03*
X2386501Y564500D02*
D03*
X1084001D02*
D03*
D123*
X215999Y680500D02*
D03*
X1518499D02*
D03*
X2386501Y602000D02*
D03*
X1084001D02*
D03*
D124*
X49999Y1175900D02*
D03*
Y695900D02*
D03*
X1249999D02*
D03*
Y1175900D02*
D03*
D03*
Y695900D02*
D03*
X49999D02*
D03*
Y1175900D02*
D03*
X792329Y1269170D02*
D03*
X817729D02*
D03*
X843129Y1269170D02*
D03*
X868529D02*
D03*
X502399Y1254500D02*
D03*
X553199D02*
D03*
X603999D02*
D03*
X654799D02*
D03*
X705599D02*
D03*
X1352499Y1175900D02*
D03*
Y695900D02*
D03*
X2552499D02*
D03*
Y1175900D02*
D03*
D03*
Y695900D02*
D03*
X1352499D02*
D03*
Y1175900D02*
D03*
X2094829Y1269170D02*
D03*
X2120229D02*
D03*
X2145629Y1269170D02*
D03*
X2171029D02*
D03*
X1804899Y1254500D02*
D03*
X1855699D02*
D03*
X1906499D02*
D03*
X1957299D02*
D03*
X2008099D02*
D03*
X2552501Y106600D02*
D03*
Y586600D02*
D03*
X1352501D02*
D03*
Y106600D02*
D03*
D03*
Y586600D02*
D03*
X2552501D02*
D03*
Y106600D02*
D03*
X1810171Y13330D02*
D03*
X1784771D02*
D03*
X1759371Y13330D02*
D03*
X1733971D02*
D03*
X2100101Y28000D02*
D03*
X2049301D02*
D03*
X1998501D02*
D03*
X1947701D02*
D03*
X1896901D02*
D03*
X1250001Y106600D02*
D03*
Y586600D02*
D03*
X50001D02*
D03*
Y106600D02*
D03*
D03*
Y586600D02*
D03*
X1250001D02*
D03*
Y106600D02*
D03*
X507671Y13330D02*
D03*
X482271D02*
D03*
X456871Y13330D02*
D03*
X431471D02*
D03*
X797601Y28000D02*
D03*
X746801D02*
D03*
X696001D02*
D03*
X645201D02*
D03*
X594401D02*
D03*
D125*
X551579Y938934D02*
D03*
X630319D02*
D03*
X709059D02*
D03*
X787799D02*
D03*
X910099D02*
D03*
X988839D02*
D03*
X1067579D02*
D03*
X1146349D02*
D03*
X1854079D02*
D03*
X1932819D02*
D03*
X2011559D02*
D03*
X2090299D02*
D03*
X2212599D02*
D03*
X2291339D02*
D03*
X2370079D02*
D03*
X2448849D02*
D03*
X2050921Y343566D02*
D03*
X1972181D02*
D03*
X1893441D02*
D03*
X1814701D02*
D03*
X1692401D02*
D03*
X1613661D02*
D03*
X1534921D02*
D03*
X1456151D02*
D03*
X748421D02*
D03*
X669681D02*
D03*
X590941D02*
D03*
X512201D02*
D03*
X389901D02*
D03*
X311161D02*
D03*
X232421D02*
D03*
X153651D02*
D03*
D126*
X551579Y964334D02*
D03*
Y989734D02*
D03*
Y1015134D02*
D03*
Y1040534D02*
D03*
X500779Y938934D02*
D03*
Y964334D02*
D03*
Y989734D02*
D03*
Y1015134D02*
D03*
Y1040534D02*
D03*
X630319Y964334D02*
D03*
Y989734D02*
D03*
Y1015134D02*
D03*
Y1040534D02*
D03*
X579519Y938934D02*
D03*
Y964334D02*
D03*
Y989734D02*
D03*
Y1015134D02*
D03*
Y1040534D02*
D03*
X709059Y964334D02*
D03*
Y989734D02*
D03*
Y1015134D02*
D03*
Y1040534D02*
D03*
X658259Y938934D02*
D03*
Y964334D02*
D03*
Y989734D02*
D03*
Y1015134D02*
D03*
Y1040534D02*
D03*
X787799Y964334D02*
D03*
Y989734D02*
D03*
Y1015134D02*
D03*
Y1040534D02*
D03*
X736999Y938934D02*
D03*
Y964334D02*
D03*
Y989734D02*
D03*
Y1015134D02*
D03*
Y1040534D02*
D03*
X910099Y964334D02*
D03*
Y989734D02*
D03*
Y1015134D02*
D03*
Y1040534D02*
D03*
X859299Y938934D02*
D03*
Y964334D02*
D03*
Y989734D02*
D03*
Y1015134D02*
D03*
Y1040534D02*
D03*
X988839Y964334D02*
D03*
Y989734D02*
D03*
Y1015134D02*
D03*
Y1040534D02*
D03*
X938039Y938934D02*
D03*
Y964334D02*
D03*
Y989734D02*
D03*
Y1015134D02*
D03*
Y1040534D02*
D03*
X1067579Y964334D02*
D03*
Y989734D02*
D03*
Y1015134D02*
D03*
Y1040534D02*
D03*
X1016779Y938934D02*
D03*
Y964334D02*
D03*
Y989734D02*
D03*
Y1015134D02*
D03*
Y1040534D02*
D03*
X1146349Y964334D02*
D03*
Y989734D02*
D03*
Y1015134D02*
D03*
Y1040534D02*
D03*
X1095549Y938934D02*
D03*
Y964334D02*
D03*
Y989734D02*
D03*
Y1015134D02*
D03*
Y1040534D02*
D03*
X1854079Y964334D02*
D03*
Y989734D02*
D03*
Y1015134D02*
D03*
Y1040534D02*
D03*
X1803279Y938934D02*
D03*
Y964334D02*
D03*
Y989734D02*
D03*
Y1015134D02*
D03*
Y1040534D02*
D03*
X1932819Y964334D02*
D03*
Y989734D02*
D03*
Y1015134D02*
D03*
Y1040534D02*
D03*
X1882019Y938934D02*
D03*
Y964334D02*
D03*
Y989734D02*
D03*
Y1015134D02*
D03*
Y1040534D02*
D03*
X2011559Y964334D02*
D03*
Y989734D02*
D03*
Y1015134D02*
D03*
Y1040534D02*
D03*
X1960759Y938934D02*
D03*
Y964334D02*
D03*
Y989734D02*
D03*
Y1015134D02*
D03*
Y1040534D02*
D03*
X2090299Y964334D02*
D03*
Y989734D02*
D03*
Y1015134D02*
D03*
Y1040534D02*
D03*
X2039499Y938934D02*
D03*
Y964334D02*
D03*
Y989734D02*
D03*
Y1015134D02*
D03*
Y1040534D02*
D03*
X2212599Y964334D02*
D03*
Y989734D02*
D03*
Y1015134D02*
D03*
Y1040534D02*
D03*
X2161799Y938934D02*
D03*
Y964334D02*
D03*
Y989734D02*
D03*
Y1015134D02*
D03*
Y1040534D02*
D03*
X2291339Y964334D02*
D03*
Y989734D02*
D03*
Y1015134D02*
D03*
Y1040534D02*
D03*
X2240539Y938934D02*
D03*
Y964334D02*
D03*
Y989734D02*
D03*
Y1015134D02*
D03*
Y1040534D02*
D03*
X2370079Y964334D02*
D03*
Y989734D02*
D03*
Y1015134D02*
D03*
Y1040534D02*
D03*
X2319279Y938934D02*
D03*
Y964334D02*
D03*
Y989734D02*
D03*
Y1015134D02*
D03*
Y1040534D02*
D03*
X2448849Y964334D02*
D03*
Y989734D02*
D03*
Y1015134D02*
D03*
Y1040534D02*
D03*
X2398049Y938934D02*
D03*
Y964334D02*
D03*
Y989734D02*
D03*
Y1015134D02*
D03*
Y1040534D02*
D03*
X2050921Y318166D02*
D03*
Y292766D02*
D03*
Y267366D02*
D03*
Y241966D02*
D03*
X2101721Y343566D02*
D03*
Y318166D02*
D03*
Y292766D02*
D03*
Y267366D02*
D03*
Y241966D02*
D03*
X1972181Y318166D02*
D03*
Y292766D02*
D03*
Y267366D02*
D03*
Y241966D02*
D03*
X2022981Y343566D02*
D03*
Y318166D02*
D03*
Y292766D02*
D03*
Y267366D02*
D03*
Y241966D02*
D03*
X1893441Y318166D02*
D03*
Y292766D02*
D03*
Y267366D02*
D03*
Y241966D02*
D03*
X1944241Y343566D02*
D03*
Y318166D02*
D03*
Y292766D02*
D03*
Y267366D02*
D03*
Y241966D02*
D03*
X1814701Y318166D02*
D03*
Y292766D02*
D03*
Y267366D02*
D03*
Y241966D02*
D03*
X1865501Y343566D02*
D03*
Y318166D02*
D03*
Y292766D02*
D03*
Y267366D02*
D03*
Y241966D02*
D03*
X1692401Y318166D02*
D03*
Y292766D02*
D03*
Y267366D02*
D03*
Y241966D02*
D03*
X1743201Y343566D02*
D03*
Y318166D02*
D03*
Y292766D02*
D03*
Y267366D02*
D03*
Y241966D02*
D03*
X1613661Y318166D02*
D03*
Y292766D02*
D03*
Y267366D02*
D03*
Y241966D02*
D03*
X1664461Y343566D02*
D03*
Y318166D02*
D03*
Y292766D02*
D03*
Y267366D02*
D03*
Y241966D02*
D03*
X1534921Y318166D02*
D03*
Y292766D02*
D03*
Y267366D02*
D03*
Y241966D02*
D03*
X1585721Y343566D02*
D03*
Y318166D02*
D03*
Y292766D02*
D03*
Y267366D02*
D03*
Y241966D02*
D03*
X1456151Y318166D02*
D03*
Y292766D02*
D03*
Y267366D02*
D03*
Y241966D02*
D03*
X1506951Y343566D02*
D03*
Y318166D02*
D03*
Y292766D02*
D03*
Y267366D02*
D03*
Y241966D02*
D03*
X748421Y318166D02*
D03*
Y292766D02*
D03*
Y267366D02*
D03*
Y241966D02*
D03*
X799221Y343566D02*
D03*
Y318166D02*
D03*
Y292766D02*
D03*
Y267366D02*
D03*
Y241966D02*
D03*
X669681Y318166D02*
D03*
Y292766D02*
D03*
Y267366D02*
D03*
Y241966D02*
D03*
X720481Y343566D02*
D03*
Y318166D02*
D03*
Y292766D02*
D03*
Y267366D02*
D03*
Y241966D02*
D03*
X590941Y318166D02*
D03*
Y292766D02*
D03*
Y267366D02*
D03*
Y241966D02*
D03*
X641741Y343566D02*
D03*
Y318166D02*
D03*
Y292766D02*
D03*
Y267366D02*
D03*
Y241966D02*
D03*
X512201Y318166D02*
D03*
Y292766D02*
D03*
Y267366D02*
D03*
Y241966D02*
D03*
X563001Y343566D02*
D03*
Y318166D02*
D03*
Y292766D02*
D03*
Y267366D02*
D03*
Y241966D02*
D03*
X389901Y318166D02*
D03*
Y292766D02*
D03*
Y267366D02*
D03*
Y241966D02*
D03*
X440701Y343566D02*
D03*
Y318166D02*
D03*
Y292766D02*
D03*
Y267366D02*
D03*
Y241966D02*
D03*
X311161Y318166D02*
D03*
Y292766D02*
D03*
Y267366D02*
D03*
Y241966D02*
D03*
X361961Y343566D02*
D03*
Y318166D02*
D03*
Y292766D02*
D03*
Y267366D02*
D03*
Y241966D02*
D03*
X232421Y318166D02*
D03*
Y292766D02*
D03*
Y267366D02*
D03*
Y241966D02*
D03*
X283221Y343566D02*
D03*
Y318166D02*
D03*
Y292766D02*
D03*
Y267366D02*
D03*
Y241966D02*
D03*
X153651Y318166D02*
D03*
Y292766D02*
D03*
Y267366D02*
D03*
Y241966D02*
D03*
X204451Y343566D02*
D03*
Y318166D02*
D03*
Y292766D02*
D03*
Y267366D02*
D03*
Y241966D02*
D03*
D127*
X518479Y739094D02*
D03*
X543879D02*
D03*
X569279D02*
D03*
X594679D02*
D03*
X620079D02*
D03*
X518479Y891494D02*
D03*
X543879D02*
D03*
X569279D02*
D03*
X594679D02*
D03*
X646749Y739094D02*
D03*
X672149D02*
D03*
X697549D02*
D03*
X722949D02*
D03*
X748349D02*
D03*
X646749Y891494D02*
D03*
X672149D02*
D03*
X697549D02*
D03*
X722949D02*
D03*
X775019Y739094D02*
D03*
X800419D02*
D03*
X825819D02*
D03*
X851219D02*
D03*
X876619D02*
D03*
X775019Y891494D02*
D03*
X800419D02*
D03*
X825819D02*
D03*
X851219D02*
D03*
X903289Y739094D02*
D03*
X928689D02*
D03*
X954089D02*
D03*
X979489D02*
D03*
X1004889D02*
D03*
X903289Y891494D02*
D03*
X928689D02*
D03*
X954089D02*
D03*
X979489D02*
D03*
X1031349Y739034D02*
D03*
X1056749D02*
D03*
X1082149D02*
D03*
X1107549D02*
D03*
X1132949D02*
D03*
X1031349Y891434D02*
D03*
X1056749D02*
D03*
X1082149D02*
D03*
X1107549D02*
D03*
X1820979Y739094D02*
D03*
X1846379D02*
D03*
X1871779D02*
D03*
X1897179D02*
D03*
X1922579D02*
D03*
X1820979Y891494D02*
D03*
X1846379D02*
D03*
X1871779D02*
D03*
X1897179D02*
D03*
X1949249Y739094D02*
D03*
X1974649D02*
D03*
X2000049D02*
D03*
X2025449D02*
D03*
X2050849D02*
D03*
X1949249Y891494D02*
D03*
X1974649D02*
D03*
X2000049D02*
D03*
X2025449D02*
D03*
X2077519Y739094D02*
D03*
X2102919D02*
D03*
X2128319D02*
D03*
X2153719D02*
D03*
X2179119D02*
D03*
X2077519Y891494D02*
D03*
X2102919D02*
D03*
X2128319D02*
D03*
X2153719D02*
D03*
X2205789Y739094D02*
D03*
X2231189D02*
D03*
X2256589D02*
D03*
X2281989D02*
D03*
X2307389D02*
D03*
X2205789Y891494D02*
D03*
X2231189D02*
D03*
X2256589D02*
D03*
X2281989D02*
D03*
X2333849Y739034D02*
D03*
X2359249D02*
D03*
X2384649D02*
D03*
X2410049D02*
D03*
X2435449D02*
D03*
X2333849Y891434D02*
D03*
X2359249D02*
D03*
X2384649D02*
D03*
X2410049D02*
D03*
X2084021Y543406D02*
D03*
X2058621D02*
D03*
X2033221D02*
D03*
X2007821D02*
D03*
X1982421D02*
D03*
X2084021Y391006D02*
D03*
X2058621D02*
D03*
X2033221D02*
D03*
X2007821D02*
D03*
X1955751Y543406D02*
D03*
X1930351D02*
D03*
X1904951D02*
D03*
X1879551D02*
D03*
X1854151D02*
D03*
X1955751Y391006D02*
D03*
X1930351D02*
D03*
X1904951D02*
D03*
X1879551D02*
D03*
X1827481Y543406D02*
D03*
X1802081D02*
D03*
X1776681D02*
D03*
X1751281D02*
D03*
X1725881D02*
D03*
X1827481Y391006D02*
D03*
X1802081D02*
D03*
X1776681D02*
D03*
X1751281D02*
D03*
X1699211Y543406D02*
D03*
X1673811D02*
D03*
X1648411D02*
D03*
X1623011D02*
D03*
X1597611D02*
D03*
X1699211Y391006D02*
D03*
X1673811D02*
D03*
X1648411D02*
D03*
X1623011D02*
D03*
X1571151Y543466D02*
D03*
X1545751D02*
D03*
X1520351D02*
D03*
X1494951D02*
D03*
X1469551D02*
D03*
X1571151Y391066D02*
D03*
X1545751D02*
D03*
X1520351D02*
D03*
X1494951D02*
D03*
X781521Y543406D02*
D03*
X756121D02*
D03*
X730721D02*
D03*
X705321D02*
D03*
X679921D02*
D03*
X781521Y391006D02*
D03*
X756121D02*
D03*
X730721D02*
D03*
X705321D02*
D03*
X653251Y543406D02*
D03*
X627851D02*
D03*
X602451D02*
D03*
X577051D02*
D03*
X551651D02*
D03*
X653251Y391006D02*
D03*
X627851D02*
D03*
X602451D02*
D03*
X577051D02*
D03*
X524981Y543406D02*
D03*
X499581D02*
D03*
X474181D02*
D03*
X448781D02*
D03*
X423381D02*
D03*
X524981Y391006D02*
D03*
X499581D02*
D03*
X474181D02*
D03*
X448781D02*
D03*
X396711Y543406D02*
D03*
X371311D02*
D03*
X345911D02*
D03*
X320511D02*
D03*
X295111D02*
D03*
X396711Y391006D02*
D03*
X371311D02*
D03*
X345911D02*
D03*
X320511D02*
D03*
X268651Y543466D02*
D03*
X243251D02*
D03*
X217851D02*
D03*
X192451D02*
D03*
X167051D02*
D03*
X268651Y391066D02*
D03*
X243251D02*
D03*
X217851D02*
D03*
X192451D02*
D03*
D128*
X620079Y891494D02*
D03*
X748349D02*
D03*
X876619D02*
D03*
X1004889D02*
D03*
X1132949Y891434D02*
D03*
X1922579Y891494D02*
D03*
X2050849D02*
D03*
X2179119D02*
D03*
X2307389D02*
D03*
X2435449Y891434D02*
D03*
X1982421Y391006D02*
D03*
X1854151D02*
D03*
X1725881D02*
D03*
X1597611D02*
D03*
X1469551Y391066D02*
D03*
X679921Y391006D02*
D03*
X551651D02*
D03*
X423381D02*
D03*
X295111D02*
D03*
X167051Y391066D02*
D03*
D129*
X428309Y716160D02*
D03*
X1730809D02*
D03*
X2174191Y566340D02*
D03*
X871691D02*
D03*
D130*
X453309Y716160D02*
D03*
X1755809D02*
D03*
X2149191Y566340D02*
D03*
X846691D02*
D03*
D131*
X603999Y1217670D02*
D03*
X553199D02*
D03*
X654799D02*
D03*
X705599D02*
D03*
X1140999Y1113500D02*
D03*
X379999Y1209000D02*
D03*
X1906499Y1217670D02*
D03*
X1855699D02*
D03*
X1957299D02*
D03*
X2008099D02*
D03*
X2443499Y1113500D02*
D03*
X1682499Y1209000D02*
D03*
X1998501Y64830D02*
D03*
X2049301D02*
D03*
X1947701D02*
D03*
X1896901D02*
D03*
X1461501Y169000D02*
D03*
X2222501Y73500D02*
D03*
X696001Y64830D02*
D03*
X746801D02*
D03*
X645201D02*
D03*
X594401D02*
D03*
X159001Y169000D02*
D03*
X920001Y73500D02*
D03*
D132*
X502399Y1217670D02*
D03*
X1804899D02*
D03*
X2100101Y64830D02*
D03*
X797601D02*
D03*
D133*
X999578Y1254921D02*
D03*
X2302078D02*
D03*
X1602922Y27579D02*
D03*
X300422D02*
D03*
D134*
X1224999Y805900D02*
D03*
Y890900D02*
D03*
Y975900D02*
D03*
Y1060900D02*
D03*
X2527499Y805900D02*
D03*
Y890900D02*
D03*
Y975900D02*
D03*
Y1060900D02*
D03*
X1377501Y476600D02*
D03*
Y391600D02*
D03*
Y306600D02*
D03*
Y221600D02*
D03*
X75001Y476600D02*
D03*
Y391600D02*
D03*
Y306600D02*
D03*
Y221600D02*
D03*
D135*
X1202499Y805900D02*
D03*
Y890900D02*
D03*
Y975900D02*
D03*
Y1060900D02*
D03*
X2504999Y805900D02*
D03*
Y890900D02*
D03*
Y975900D02*
D03*
Y1060900D02*
D03*
X1400001Y476600D02*
D03*
Y391600D02*
D03*
Y306600D02*
D03*
Y221600D02*
D03*
X97501Y476600D02*
D03*
Y391600D02*
D03*
Y306600D02*
D03*
Y221600D02*
D03*
D136*
X869799Y1242500D02*
D03*
X1172199Y1266500D02*
D03*
X294959Y1206380D02*
D03*
X905799Y1133500D02*
D03*
X2172299Y1242500D02*
D03*
X2474699Y1266500D02*
D03*
X1597459Y1206380D02*
D03*
X2208299Y1133500D02*
D03*
X1732701Y40000D02*
D03*
X1430301Y16000D02*
D03*
X2307541Y76120D02*
D03*
X1696701Y149000D02*
D03*
X430201Y40000D02*
D03*
X127801Y16000D02*
D03*
X1005041Y76120D02*
D03*
X394201Y149000D02*
D03*
D137*
X25719Y951110D02*
D03*
X1328219D02*
D03*
X2576781Y331390D02*
D03*
X1274281D02*
D03*
D138*
X789999Y1168500D02*
D03*
X802999Y1155500D02*
D03*
X2092499Y1168500D02*
D03*
X2105499Y1155500D02*
D03*
X1812501Y114000D02*
D03*
X1799501Y127000D02*
D03*
X510001Y114000D02*
D03*
X497001Y127000D02*
D03*
M02*
